<svg version="1" xmlns="http://www.w3.org/2000/svg" width="1280" height="1280" viewBox="0 0 960.000000 960.000000"><path d="M227 188.6c-6.9 3.6-22.6 11.7-35 18.1-12.4 6.3-22.7 11.7-22.8 11.8-.2.2 10.6 7.6 24 16.4 13.3 8.8 24.8 16.5 25.5 17 .7.6 1.5 1.1 1.8 1.1.3 0 4.5 2.6 9.3 5.9 9.4 6.3 22.3 11.1 45.4 17.1 11.7 2.9 13.2 3.3 21.8 5 2.5.4 5.6 1.1 7 1.4 5.4 1.1 25.5 4.2 34 5.1 1.4.1 4.8.5 7.5.9 12 1.6 30.8 2.9 57 4.2 19.5.9 80.4 1 96.5 0 15.7-.9 24-1.3 36-2 10-.6 21.5-1.4 31.5-2.2 3.3-.2 9.2-.6 13-.9 3.9-.2 9.3-.7 12-.9 2.8-.3 8.6-.8 13-1.1 4.4-.4 9.1-.8 10.5-1 1.4-.3 5.7-.7 9.5-1 3.9-.4 8.1-.8 9.5-1 3.4-.5 11.4-1.4 18-2 3-.3 6.6-.7 8-1 1.4-.2 4.5-.7 7-1 2.5-.4 5.6-.8 7-1 1.4-.2 4.5-.6 7-1 3.9-.5 11.5-1.6 13-2 .3-.1 4.5-.7 9.4-1.5 7.6-1.2 10-2.1 16.8-6.2 4.4-2.6 8.4-4.8 8.9-4.8s.9-.5.9-1c0-.6.4-1 .9-1s7.9-4.1 16.3-9.1 16.9-10 18.8-11c1.9-1.1 9.4-5.5 16.5-9.9 7.2-4.4 14.5-8.6 16.4-9.5 4.3-1.9 3.6-2.8-5.9-7.8-28.4-14.9-35.5-18.6-42.5-22.1-4.4-2.3-8.2-4.3-8.5-4.7-.3-.3-2.1-1.2-4-2.1-3.2-1.5-24.5-1.7-251-1.7l-247.5-.1-12.5 6.6zM118.8 231.8c-1 .2-1.8.7-1.8 1.1 0 .3-1.5 1.5-3.2 2.6-3.1 1.7-32.9 20.9-60.3 38.6-6.6 4.3-12.5 8.3-13.2 8.8-.7.6-1.5 1.1-1.9 1.1-.9 0-14.6 9.2-14.2 9.5.6.6 11 4.6 28.3 11 9.9 3.6 21.4 7.9 25.5 9.5 7.4 2.8 49.3 18.5 64 23.9 4.1 1.6 8.4 3.2 9.5 3.6 1.1.5 2.2.9 2.5 1 .6.1 12 4.3 14 5.2.8.3 2.2.7 3 .9.8.2 2.3.7 3.5 1.2 6.3 3 8.7 3.5 9.5 2.1.5-.7 3-7.2 5.6-14.4 2.6-7.1 5-13.5 5.4-14 .4-.6 1-1.9 1.3-3 .3-1.1 1.9-5.8 3.7-10.5 6.2-16.5 6-15.9 4.7-17-4.1-3.5-27-20-27.7-20-.5 0-1-.3-1.2-.8-.2-.6-14.1-11-30.8-23.2-5.8-4.2-17.6-12.9-18.5-13.7-2.9-2.4-6.2-3.9-7.7-3.5zM836.4 236.3c-3.9 2.9-8.2 6-9.5 6.9-1.3 1-6.7 4.9-11.9 8.8-5.2 3.8-11 8-12.8 9.2-1.8 1.3-4.3 3.2-5.6 4.3-1.4 1.1-10.6 7.8-20.5 15-9.9 7.1-18.1 13.5-18.1 14.2 0 .7.7 2.9 1.6 5 .9 2.1 2.1 4.8 2.5 6 .5 1.3 1.3 3.3 1.9 4.5.5 1.3 4.3 11.3 8.5 22.3s7.8 20.1 8 20.3c.4.4 8.9-2.4 11.7-3.9 1-.5 2.2-.9 2.7-.9s2.2-.5 3.8-1.2c1.5-.6 3-1.2 3.3-1.3.3-.1 1.2-.4 2-.8.8-.3 4.9-1.7 9-3.2 4.1-1.5 8.4-3 9.5-3.5 2.3-.9 25.9-9.4 32.5-11.7 2.5-.8 5.9-2.2 7.7-2.9 1.7-.8 3.7-1.4 4.5-1.4.8 0 1.8-.4 2.4-.8.5-.4 2.7-1.4 4.9-2.1 2.2-.8 5.1-1.8 6.5-2.4 1.4-.6 3-1.1 3.5-1.2 2.2-.6 57.1-20.8 58.5-21.6.9-.5 1-.9.3-.9-.6 0-7.4-3.9-15.1-8.8-17.8-11.2-16.1-10.1-27.5-17.4-5.4-3.5-10.6-6.8-11.5-7.3-.9-.6-5-3.1-9-5.8-4-2.6-7.7-4.7-8.2-4.7-.6 0-1-.3-1-.8 0-.4-.9-1.2-2-1.7-1.1-.6-7.2-4.3-13.5-8.3-6.4-3.9-11.6-7.2-11.8-7.2-.1.1-3.4 2.4-7.3 5.3zM242.2 307.3c-.5.6-1.3 3.9-1.7 7.2-.3 3.2-.8 6.2-1 6.5-.2.3-.6 2.9-1 5.9-.7 5.3-.9 7-2 12.1-.3 1.4-.7 4.3-1 6.5-.2 2.2-.7 5.1-1 6.5-1.2 6-1.6 11-.8 11.1.4.1 1.9.2 3.3.4 1.4.1 5.4.5 9 1 3.6.4 7.9.9 9.5 1 7.7.8 15.4 1.6 19 2 2.2.2 6.3.7 9 1 2.8.3 6.4.7 8 .9 1.7.3 6.2.7 10 1.1 3.9.3 8.4.8 10 1 1.7.2 5.5.7 8.5 1 3 .3 7.1.7 9 1 1.9.3 6.2.7 9.5 1 3.3.3 7.8.8 10 1.1 8.4 1 11.2 1.3 17.5 2 3.6.3 7.6.7 9 .9 1.4.1 5.2.6 8.6.9 3.3.4 7.1.8 8.5 1.1 1.3.2 5.6.6 9.4 1 7.7.6 13 1.2 20.3 2.1 2.6.3 6.1.7 7.8.9 1.8.2 5.1.6 7.5.9 16.6 1.9 18.7 1.9 19.1 0 .2-1.1.1-3.3-.3-5.1-.4-1.8-.4-3.4-.2-3.7.8-.8 1.3-41.6.5-41.7-.4 0-1.6-.3-2.7-.5-1.1-.3-4.5-.7-7.5-.9-3-.3-6.6-.8-8-1.1-1.4-.3-4.3-.8-6.5-1-2.2-.2-4.9-.6-6-.8-1.1-.2-5.1-.7-9-1.1-3.8-.4-7.9-.9-9-1.1-4.2-.8-13.5-2-22.4-3-3-.3-6.4-.8-7.5-1-2.1-.4-5.3-.8-14.6-2-3-.3-6.4-.8-7.5-1-1.1-.2-4-.6-6.5-.9-5.9-.6-10.7-1.2-27-3.5-7.4-1-13.7-1.7-14.1-1.4-.4.2-1 0-1.4-.6-.4-.6-1-.8-1.4-.5-.5.2-3.5 0-6.7-.5-5.6-.9-13.1-1.9-18.4-2.5-1.4-.1-6.1-.8-10.5-1.5s-9.1-1.3-10.5-1.5c-6.1-.6-14.6-1.8-15.1-2.1-.4-.2-1.1.2-1.7.9zM717.7 307.6c-.3.3-2.7.7-5.4.9-2.6.2-6.1.6-7.8.9-3 .5-11.4 1.6-17 2.1-1.6.2-4.9.6-7.2.9-5.8.8-11.8 1.6-17.3 2.2-2.5.3-5.6.7-7 .9-2.2.4-6.3.9-16 2-1.4.2-5 .6-8 1-6.3.8-8.6 1.1-15.5 1.9-2.7.3-6.6.8-8.5 1.1-1.9.2-5.5.7-8 1-2.5.3-6.1.7-8 1-1.9.2-6 .7-9 1-3 .4-6.7.9-8.1 1.1-1.5.2-4.5.6-6.8.9-2.3.3-6 .8-8.3 1.1-2.4.3-5.9.7-7.8.9-1.9.2-5.3.6-7.5.9-5.3.8-12.2 1.6-16.5 2.1-3.2.3-6 .7-15.9 2.1-1.8.2-3.7.6-4.1.9-.4.2-.6 12-.5 26.2l.1 25.8h4c2.1-.1 7.3-.4 11.4-.9 4.1-.5 8.9-1 10.5-1.2 1.7-.1 5-.5 7.5-.8 2.5-.3 6.8-.8 9.5-1.1 2.8-.4 6.1-.8 7.5-1 2.5-.3 15.1-1.7 18-2 4.2-.4 16.7-1.8 18.1-2 .8-.2 4.2-.6 7.5-1 3.2-.3 7.7-.8 9.9-1.1 2.2-.3 6-.7 8.5-.9 2.5-.2 6.1-.6 8-.9 3-.4 14.7-1.8 36-4.2 2.5-.2 6.1-.7 8-.9 1.9-.3 6-.8 9-1 3-.3 7.2-.7 9.3-1 8.3-1.1 11.4-1.5 16.7-2 3-.3 7.1-.7 9-1 1.9-.3 6.2-.7 9.4-1 3.3-.3 6.1-.7 6.3-.9.5-.5-2.3-15.3-3.7-20.1-.8-2.7-1.3-5-2.5-11-.4-2.2-1.1-5.3-2.2-10-.4-1.7-.7-3.2-.8-3.5-.1-.3-.5-2.4-.9-4.7-.7-3.7-2.6-6-3.9-4.7zM0 320c0 .9 2.1 3.1 25.4 27.4 9.4 9.8 19.1 19.9 21.5 22.5 8.1 8.6 38.7 40.6 65.1 68.1 1.9 2 10.3 10.8 18.7 19.6 8.3 8.8 18 18.9 21.5 22.5 3.5 3.7 13.5 14.2 22.3 23.4 8.8 9.3 18.5 19.4 21.5 22.5 3 3.1 12.9 13.5 22 23.1 9.1 9.5 18.8 19.6 21.5 22.5 2.8 2.8 11.5 12 19.5 20.4 8 8.4 17 17.8 20 21 11.3 11.8 37.7 39.4 43.4 45.3 6.7 7.1 33.5 35.2 41.6 43.7 20.6 21.5 26.2 27.2 26.5 26.8.4-.3-6.2-11.8-10.9-19.3-.7-1.1-1.3-2.3-1.2-2.6.1-.4-.6-1.5-1.5-2.5-1.3-1.6-10.2-16.3-14.5-23.9-3.1-5.6-23.9-40.4-25.5-42.7-1-1.5-1.9-2.9-1.9-3.2 0-.4-14.6-25.2-20.9-35.6-3-4.9-14.8-24.8-15.7-26.5-.6-1.1-2.2-3.8-3.6-6-6-9.4-21.8-36.5-21.8-37.4 0-.5-.4-1.1-.8-1.3-.6-.2-8.6-13.4-17.2-28.3-1-1.7-7.3-12.2-14-23.5s-13-21.9-14-23.5c-.9-1.7-3.2-5.5-5-8.5-1.8-3-4.1-6.9-5-8.5-1-1.7-6.3-10.6-11.9-19.9-5.5-9.3-10.1-17.1-10.1-17.2 0-.2-1.6-2.8-3.5-5.8-2-3.2-4.3-5.6-5.7-5.9-1.9-.4-90-32.4-94.8-34.4-.8-.3-1.9-.7-2.5-.9-2.5-.6-14.1-4.9-14.5-5.4-.3-.3-1.2-.6-2-.8-1.3-.3-17.8-6.2-38-13.6C10.7 323 0 319.3 0 320zM956.3 321.6c-1.8.8-3.3 1.1-3.3.7 0-.5-.4-.4-.8.2-.4.5-5.6 2.7-11.7 4.9-6 2.1-17.1 6-24.5 8.6-7.4 2.7-16.2 5.8-19.5 7-3.3 1.1-6.7 2.4-7.5 2.7-.8.3-1.8.7-2.2.7-.3.1-1 .4-1.4.8-.4.5-1.6.8-2.6.8s-2.6.4-3.6 1c-1.5.8-17.7 6.7-55.2 20-7.4 2.6-21.8 7.8-32 11.5s-19.1 6.8-19.7 6.8c-.7 0-1.3.4-1.3.9s-.8 2.1-1.9 3.6c-1 1.5-4.7 7.6-8.2 13.7-3.5 6-6.6 11.2-6.9 11.5-.3.3-1.4 2.3-2.5 4.5s-2.2 4.2-2.5 4.5c-1.2 1.2-5 7-5 7.6 0 .4-2.7 5.3-6.1 10.8-3.3 5.6-6.5 11-7.1 12.1-.7 1.1-3.3 5.5-6 9.8-2.6 4.3-4.8 8.3-4.8 8.8s-.4.9-.8.9-1.3 1.2-2 2.7c-.6 1.6-4.2 7.8-7.9 14-3.8 6.1-11.4 18.9-17.1 28.5-5.7 9.5-10.8 18-11.2 18.8-.5.8-2.8 4.6-5.1 8.5-2.3 3.8-5 8.3-5.9 10-1 1.6-5.6 9.5-10.4 17.4-4.7 7.9-8.6 14.5-8.6 14.7 0 .2-1.6 2.8-3.5 5.8s-3.5 6-3.5 6.6c0 .5-.4 1-1 1-.5 0-1 .5-1 1 0 .6-1.2 2.9-2.7 5.3-1.5 2.3-3.3 5.1-3.9 6.2-2.4 4.3-5.6 9.8-18.8 31.8-7.5 12.5-13.6 23-13.6 23.3 0 .3-.5 1-1 1.7-1.5 1.6-26.8 44.3-28.8 48.4-.9 1.8-1.9 3.3-2.4 3.3-.4 0-.8.8-.8 1.7 0 1.2 3.6-1.9 9.6-8.2 13.2-13.8 40.3-42.1 49.9-52.1 4.4-4.5 14.8-15.3 23-24 8.3-8.6 17.3-18 20-20.9 4.6-4.7 30.9-32.2 44.9-46.8 5.9-6.2 37-38.7 50.1-52.3 3.9-4 13.5-14.1 21.5-22.5 8-8.3 17-17.8 20-20.9 3-3.1 13.4-13.9 23-24s20.9-21.8 25-26.1c7.1-7.3 35.1-36.6 45-46.9 13.3-14 33.5-35.1 40.9-42.8 4.6-4.8 10.4-10.8 12.9-13.4 2.5-2.6 4.4-4.9 4.1-5.1-.2-.2-1.9.2-3.6.9zM232.7 392.7c.4 1 2.6 5 5 8.9 2.4 3.9 4.3 7.7 4.3 8.3 0 .6.4 1.1.8 1.1.5 0 1.6 1.5 2.5 3.2 1.8 3.5 2.2 4.2 10.6 18.3 3 4.9 5.9 9.9 6.5 11 .6 1.1 5.5 9.3 10.9 18.2 5.3 8.8 9.7 16.6 9.7 17.1 0 .6.3 1.2.8 1.4.6.2 9.3 14.5 14.7 24 1 1.7 6.8 11.5 25.6 43.1 11.8 19.8 12.2 20.5 14.6 24.7 1.1 1.9 3.4 5.8 5.1 8.6 1.8 2.8 3.2 5.6 3.2 6.3 0 .6.4 1.1.8 1.1.5 0 2.3 2.8 4.1 6.2 1.9 3.5 3.8 6.8 4.3 7.4 1.2 1.7 10.8 17.6 10.8 18.2 0 .2.8 1.6 1.9 3 1 1.5 2.9 4.7 4.3 7.2s6.6 11.3 11.7 19.7c5 8.4 9.1 15.7 9.1 16.2s.3 1.1.8 1.3c.7.3 7.7 11.7 11.5 18.8 1.1 1.9 2.5 4.2 3.1 5 .7.8 1.8 2.6 2.4 4 .7 1.4 1.8 3.4 2.5 4.5 1.7 2.8 16 26.6 17.2 28.7 9.5 16.5 19.1 32.6 20 33.8.7.8 2.3 3.5 3.6 6 1.3 2.5 2.7 4.7 3 5 .3.3 1.1 1.5 1.8 2.8 2.1 4 2.7 1.5 2.5-10.5-.5-22.1-1.5-77.7-2-106.3-.2-15.7-.6-39.3-.9-52.5-2.1-113.9-2.5-134.6-2.9-162.8-.2-13.1-.5-24-.7-24.2-.4-.3-3.6-.7-14.6-2.1-2.7-.3-6.1-.8-7.8-1-1.6-.3-5.2-.7-8-.9-2.7-.3-5.9-.6-7-.9-1.1-.2-4.9-.7-8.5-1.1-3.6-.4-7.2-.8-8-1-.8-.1-4.4-.6-8-1-3.6-.4-7.3-.9-8.2-1-.9-.2-4.8-.7-8.5-1-3.7-.4-7.9-.8-9.3-1.1-1.4-.2-4.7-.7-7.5-1-2.7-.3-6.3-.7-8-1-1.6-.3-5.5-.7-8.5-1-3-.3-6.6-.7-8-1-2.7-.5-6.2-.9-15-1.8-3-.3-6.6-.8-8-1-3.6-.6-12.9-1.8-17-2.1-1.9-.2-5.3-.6-7.5-.9-2.2-.3-6-.8-8.5-1.1-4.2-.5-10.3-1.3-16-2-1.4-.2-5-.6-8-.9-3-.3-6.4-.8-7.5-1-1.1-.2-4.9-.7-8.5-1.1-3.6-.4-6.8-.9-7.2-1.2-.4-.2-.5.4-.1 1.4zM719.7 393.2c-.6.4-1.4.5-1.8.2-.6-.3-9.9.7-18.9 2.1-1.4.2-6.5.9-11.5 1.5-4.9.6-10.3 1.3-12 1.6-1.6.3-5.1.7-7.6.9-2.5.2-6.5.7-9 1-2.4.4-5.5.8-6.9 1-3.9.4-13.2 1.6-16 2-1.4.2-4.7.7-7.5 1-2.7.3-6.6.7-8.5 1-1.9.3-5.5.7-8 1-2.5.3-5.5.7-6.7.9-1.2.3-5.3.8-9 1.1-3.7.4-7.5.9-8.3 1-2 .3-10.4 1.5-15.5 2-2.2.3-5.6.7-7.5.9-1.9.3-5.7.8-8.5 1.1-2.7.4-6.3.9-8 1.2-1.6.2-5.2.6-8 .8-2.7.3-6.1.7-7.5 1-1.4.3-4.7.7-7.5 1-2.7.3-6.1.7-7.5 1-1.4.2-5.2.6-8.5 1s-6.1.8-6.3.9c-.1.2-.5 12.4-.7 27.2-.9 56.1-1.6 100.9-2 129.4-.3 16.2-.7 44.1-1 62-2.2 135.4-2.2 139-.9 139 .6 0 1.7-1.2 2.5-2.7.8-1.6 3.5-6.3 6.2-10.6 2.6-4.3 4.7-8.3 4.7-8.8s.5-.9 1.2-.9c.6 0 .8-.3.5-.7-.4-.3-.1-1.3.6-2.2 1.4-1.7 11.3-18.2 15.6-26.1 1.3-2.4 3-5 3.7-5.8.8-.7 1.7-2.4 2-3.8.3-1.3 1-2.4 1.4-2.4.4 0 1-.8 1.3-1.7.4-1 1.6-3.5 2.9-5.5 5.5-8.7 10.8-18.1 10.8-18.9 0-.5.5-.9 1-.9.6 0 1-.4 1-.9s2.7-5.3 6-10.8c3.3-5.4 6.5-11 7.1-12.6.6-1.5 1.4-2.7 1.9-2.7.4 0 1-.8 1.4-1.8.3-.9 1.4-3.1 2.3-4.7 1-1.7 3.9-6.4 6.3-10.5 2.5-4.1 5-8.4 5.7-9.5.7-1.1 1.5-2.7 1.9-3.5.7-1.3 4.6-7.9 8.1-13.6.7-1 2.5-4.2 4.1-6.9 8.2-14.4 14.7-25 15.4-25.3.4-.2.8-.8.8-1.3 0-.7 15.6-27.5 40.4-69.4 2.3-3.9 4.8-8.2 5.5-9.8.8-1.5 1.8-2.7 2.3-2.7.4 0 .8-.5.8-1.1 0-.6 2.6-5.4 5.8-10.8 3.2-5.3 8.3-13.8 11.3-18.9 3-5.1 6.3-10.7 7.4-12.6 2.5-4.2 7.3-12.6 11-19.1 1.6-2.8 3.3-5.2 3.7-5.3.4-.2.8-.8.8-1.2 0-.5 2.7-5.4 6-10.9s6-10.5 6-11.1c0-.5.4-1 .9-1s1.3-1 1.7-2.3c.3-1.2 1.2-2.9 1.8-3.7.7-.8 2.5-3.6 3.9-6.1l2.6-4.7-3 .2c-1.7 0-3.6.4-4.2.8z"/></svg>